<?xml version="1.0" encoding="utf-8" standalone="no"?>
<!DOCTYPE svg PUBLIC "-//W3C//DTD SVG 1.1//EN"
  "http://www.w3.org/Graphics/SVG/1.1/DTD/svg11.dtd">
<svg xmlns:xlink="http://www.w3.org/1999/xlink" width="1158.4pt" height="496pt" viewBox="0 0 1158.4 496" xmlns="http://www.w3.org/2000/svg" version="1.1">
 <metadata>
  <rdf:RDF xmlns:dc="http://purl.org/dc/elements/1.1/" xmlns:cc="http://creativecommons.org/ns#" xmlns:rdf="http://www.w3.org/1999/02/22-rdf-syntax-ns#">
   <cc:Work>
    <dc:type rdf:resource="http://purl.org/dc/dcmitype/StillImage"/>
    <dc:date>2026-07-03T12:36:07.492536</dc:date>
    <dc:format>image/svg+xml</dc:format>
    <dc:creator>
     <cc:Agent>
      <dc:title>Matplotlib v3.11.0, https://matplotlib.org/</dc:title>
     </cc:Agent>
    </dc:creator>
   </cc:Work>
  </rdf:RDF>
 </metadata>
 <defs>
  <style type="text/css">*{stroke-linejoin: round; stroke-linecap: butt}</style>
 </defs>
 <g id="figure_1">
  <g id="patch_1">
   <path d="M 0 496 
L 1158.4 496 
L 1158.4 0 
L 0 0 
z
" style="fill: #eaecf0"/>
  </g>
  <g id="axes_1">
   <g id="line2d_1">
    <path d="M 161.211 59.609412 
L 161.211 53.235294 
L 430.194 53.235294 
L 430.194 59.609412 
" clip-path="url(#p3efa4bf3f9)" style="fill: none; stroke: #aaaaaa; stroke-width: 1.1; stroke-linecap: square"/>
   </g>
   <g id="line2d_2">
    <path d="M 600.936 59.609412 
L 600.936 53.235294 
L 889.224 53.235294 
L 889.224 59.609412 
" clip-path="url(#p3efa4bf3f9)" style="fill: none; stroke: #aaaaaa; stroke-width: 1.1; stroke-linecap: square"/>
   </g>
   <g id="patch_2">
    <path d="M 81.417 375.708988 
L 125.747 375.708988 
L 125.747 106.579576 
L 81.417 106.579576 
z
" clip-path="url(#p3efa4bf3f9)" style="fill: #8fa8c8; stroke: #ffffff; stroke-width: 0.8; stroke-linejoin: miter"/>
   </g>
   <g id="patch_3">
    <path d="M 81.417 106.579576 
L 125.747 106.579576 
L 141.477 99.100612 
L 97.147 99.100612 
z
" clip-path="url(#p3efa4bf3f9)" style="fill: #b3c4da; stroke: #ffffff; stroke-width: 0.8; stroke-linejoin: miter"/>
   </g>
   <g id="patch_4">
    <path d="M 125.747 375.708988 
L 141.477 368.230024 
L 141.477 99.100612 
L 125.747 106.579576 
z
" clip-path="url(#p3efa4bf3f9)" style="fill: #70839c; stroke: #ffffff; stroke-width: 0.8; stroke-linejoin: miter"/>
   </g>
   <g id="patch_5">
    <path d="M 188.667 375.708988 
L 232.997 375.708988 
L 232.997 106.579576 
L 188.667 106.579576 
z
" clip-path="url(#p3efa4bf3f9)" style="fill: #4a7fcf; stroke: #ffffff; stroke-width: 0.8; stroke-linejoin: miter"/>
   </g>
   <g id="patch_6">
    <path d="M 188.667 106.579576 
L 232.997 106.579576 
L 248.727 99.100612 
L 204.397 99.100612 
z
" clip-path="url(#p3efa4bf3f9)" style="fill: #84a8de; stroke: #ffffff; stroke-width: 0.8; stroke-linejoin: miter"/>
   </g>
   <g id="patch_7">
    <path d="M 232.997 375.708988 
L 248.727 368.230024 
L 248.727 99.100612 
L 232.997 106.579576 
z
" clip-path="url(#p3efa4bf3f9)" style="fill: #3a63a1; stroke: #ffffff; stroke-width: 0.8; stroke-linejoin: miter"/>
   </g>
   <g id="patch_8">
    <path d="M 274.5385 315.019104 
L 318.8685 315.019104 
L 318.8685 174.125179 
L 274.5385 174.125179 
z
" clip-path="url(#p3efa4bf3f9)" style="fill: #4a7fcf; stroke: #ffffff; stroke-width: 0.8; stroke-linejoin: miter"/>
   </g>
   <g id="patch_9">
    <path d="M 274.5385 174.125179 
L 318.8685 174.125179 
L 334.5985 166.646214 
L 290.2685 166.646214 
z
" clip-path="url(#p3efa4bf3f9)" style="fill: #84a8de; stroke: #ffffff; stroke-width: 0.8; stroke-linejoin: miter"/>
   </g>
   <g id="patch_10">
    <path d="M 318.8685 315.019104 
L 334.5985 307.540139 
L 334.5985 166.646214 
L 318.8685 174.125179 
z
" clip-path="url(#p3efa4bf3f9)" style="fill: #3a63a1; stroke: #ffffff; stroke-width: 0.8; stroke-linejoin: miter"/>
   </g>
   <g id="patch_11">
    <path d="M 356.835 283.223481 
L 401.165 283.223481 
L 401.165 212.776519 
L 356.835 212.776519 
z
" clip-path="url(#p3efa4bf3f9)" style="fill: #4a7fcf; stroke: #ffffff; stroke-width: 0.8; stroke-linejoin: miter"/>
   </g>
   <g id="patch_12">
    <path d="M 356.835 212.776519 
L 401.165 212.776519 
L 416.895 205.297554 
L 372.565 205.297554 
z
" clip-path="url(#p3efa4bf3f9)" style="fill: #84a8de; stroke: #ffffff; stroke-width: 0.8; stroke-linejoin: miter"/>
   </g>
   <g id="patch_13">
    <path d="M 401.165 283.223481 
L 416.895 275.744517 
L 416.895 205.297554 
L 401.165 212.776519 
z
" clip-path="url(#p3efa4bf3f9)" style="fill: #3a63a1; stroke: #ffffff; stroke-width: 0.8; stroke-linejoin: miter"/>
   </g>
   <g id="patch_14">
    <path d="M 439.06 242.716478 
L 483.39 242.716478 
L 483.39 207.492997 
L 439.06 207.492997 
z
" clip-path="url(#p3efa4bf3f9)" style="fill: #3bb08f; stroke: #ffffff; stroke-width: 0.8; stroke-linejoin: miter"/>
   </g>
   <g id="patch_15">
    <path d="M 439.06 207.492997 
L 483.39 207.492997 
L 499.12 200.014032 
L 454.79 200.014032 
z
" clip-path="url(#p3efa4bf3f9)" style="fill: #7ac9b3; stroke: #ffffff; stroke-width: 0.8; stroke-linejoin: miter"/>
   </g>
   <g id="patch_16">
    <path d="M 483.39 242.716478 
L 499.12 235.237513 
L 499.12 200.014032 
L 483.39 207.492997 
z
" clip-path="url(#p3efa4bf3f9)" style="fill: #2e8970; stroke: #ffffff; stroke-width: 0.8; stroke-linejoin: miter"/>
   </g>
   <g id="patch_17">
    <path d="M 439.06 288.507003 
L 483.39 288.507003 
L 483.39 253.283522 
L 439.06 253.283522 
z
" clip-path="url(#p3efa4bf3f9)" style="fill: #3bb08f; stroke: #ffffff; stroke-width: 0.8; stroke-linejoin: miter"/>
   </g>
   <g id="patch_18">
    <path d="M 439.06 253.283522 
L 483.39 253.283522 
L 499.12 245.804557 
L 454.79 245.804557 
z
" clip-path="url(#p3efa4bf3f9)" style="fill: #7ac9b3; stroke: #ffffff; stroke-width: 0.8; stroke-linejoin: miter"/>
   </g>
   <g id="patch_19">
    <path d="M 483.39 288.507003 
L 499.12 281.028039 
L 499.12 245.804557 
L 483.39 253.283522 
z
" clip-path="url(#p3efa4bf3f9)" style="fill: #2e8970; stroke: #ffffff; stroke-width: 0.8; stroke-linejoin: miter"/>
   </g>
   <g id="patch_20">
    <path d="M 524.86 265.611741 
L 569.19 265.611741 
L 569.19 230.388259 
L 524.86 230.388259 
z
" clip-path="url(#p3efa4bf3f9)" style="fill: #f0a500; stroke: #ffffff; stroke-width: 0.8; stroke-linejoin: miter"/>
   </g>
   <g id="patch_21">
    <path d="M 524.86 230.388259 
L 569.19 230.388259 
L 584.92 222.909295 
L 540.59 222.909295 
z
" clip-path="url(#p3efa4bf3f9)" style="fill: #f5c252; stroke: #ffffff; stroke-width: 0.8; stroke-linejoin: miter"/>
   </g>
   <g id="patch_22">
    <path d="M 569.19 265.611741 
L 584.92 258.132776 
L 584.92 222.909295 
L 569.19 230.388259 
z
" clip-path="url(#p3efa4bf3f9)" style="fill: #bb8100; stroke: #ffffff; stroke-width: 0.8; stroke-linejoin: miter"/>
   </g>
   <g id="patch_23">
    <path d="M 614.235 283.223481 
L 658.565 283.223481 
L 658.565 212.776519 
L 614.235 212.776519 
z
" clip-path="url(#p3efa4bf3f9)" style="fill: #e07050; stroke: #ffffff; stroke-width: 0.8; stroke-linejoin: miter"/>
   </g>
   <g id="patch_24">
    <path d="M 614.235 212.776519 
L 658.565 212.776519 
L 674.295 205.297554 
L 629.965 205.297554 
z
" clip-path="url(#p3efa4bf3f9)" style="fill: #ea9e88; stroke: #ffffff; stroke-width: 0.8; stroke-linejoin: miter"/>
   </g>
   <g id="patch_25">
    <path d="M 658.565 283.223481 
L 674.295 275.744517 
L 674.295 205.297554 
L 658.565 212.776519 
z
" clip-path="url(#p3efa4bf3f9)" style="fill: #af573e; stroke: #ffffff; stroke-width: 0.8; stroke-linejoin: miter"/>
   </g>
   <g id="patch_26">
    <path d="M 714.2635 315.019104 
L 758.5935 315.019104 
L 758.5935 174.125179 
L 714.2635 174.125179 
z
" clip-path="url(#p3efa4bf3f9)" style="fill: #e07050; stroke: #ffffff; stroke-width: 0.8; stroke-linejoin: miter"/>
   </g>
   <g id="patch_27">
    <path d="M 714.2635 174.125179 
L 758.5935 174.125179 
L 774.3235 166.646214 
L 729.9935 166.646214 
z
" clip-path="url(#p3efa4bf3f9)" style="fill: #ea9e88; stroke: #ffffff; stroke-width: 0.8; stroke-linejoin: miter"/>
   </g>
   <g id="patch_28">
    <path d="M 758.5935 315.019104 
L 774.3235 307.540139 
L 774.3235 166.646214 
L 758.5935 174.125179 
z
" clip-path="url(#p3efa4bf3f9)" style="fill: #af573e; stroke: #ffffff; stroke-width: 0.8; stroke-linejoin: miter"/>
   </g>
   <g id="patch_29">
    <path d="M 814.292 375.708988 
L 858.622 375.708988 
L 858.622 106.579576 
L 814.292 106.579576 
z
" clip-path="url(#p3efa4bf3f9)" style="fill: #e07050; stroke: #ffffff; stroke-width: 0.8; stroke-linejoin: miter"/>
   </g>
   <g id="patch_30">
    <path d="M 814.292 106.579576 
L 858.622 106.579576 
L 874.352 99.100612 
L 830.022 99.100612 
z
" clip-path="url(#p3efa4bf3f9)" style="fill: #ea9e88; stroke: #ffffff; stroke-width: 0.8; stroke-linejoin: miter"/>
   </g>
   <g id="patch_31">
    <path d="M 858.622 375.708988 
L 874.352 368.230024 
L 874.352 99.100612 
L 858.622 106.579576 
z
" clip-path="url(#p3efa4bf3f9)" style="fill: #af573e; stroke: #ffffff; stroke-width: 0.8; stroke-linejoin: miter"/>
   </g>
   <g id="patch_32">
    <path d="M 910.817 375.708988 
L 955.147 375.708988 
L 955.147 106.579576 
L 910.817 106.579576 
z
" clip-path="url(#p3efa4bf3f9)" style="fill: #8fa8c8; stroke: #ffffff; stroke-width: 0.8; stroke-linejoin: miter"/>
   </g>
   <g id="patch_33">
    <path d="M 910.817 106.579576 
L 955.147 106.579576 
L 970.877 99.100612 
L 926.547 99.100612 
z
" clip-path="url(#p3efa4bf3f9)" style="fill: #b3c4da; stroke: #ffffff; stroke-width: 0.8; stroke-linejoin: miter"/>
   </g>
   <g id="patch_34">
    <path d="M 955.147 375.708988 
L 970.877 368.230024 
L 970.877 99.100612 
L 955.147 106.579576 
z
" clip-path="url(#p3efa4bf3f9)" style="fill: #70839c; stroke: #ffffff; stroke-width: 0.8; stroke-linejoin: miter"/>
   </g>
   <g id="patch_35">
    <path d="M 74.3385 379.136847 
L 118.6685 379.136847 
L 118.6685 110.007435 
L 74.3385 110.007435 
z
" clip-path="url(#p3efa4bf3f9)" style="fill: #8fa8c8; stroke: #ffffff; stroke-width: 0.8; stroke-linejoin: miter"/>
   </g>
   <g id="patch_36">
    <path d="M 74.3385 110.007435 
L 118.6685 110.007435 
L 134.3985 102.528471 
L 90.0685 102.528471 
z
" clip-path="url(#p3efa4bf3f9)" style="fill: #b3c4da; stroke: #ffffff; stroke-width: 0.8; stroke-linejoin: miter"/>
   </g>
   <g id="patch_37">
    <path d="M 118.6685 379.136847 
L 134.3985 371.657882 
L 134.3985 102.528471 
L 118.6685 110.007435 
z
" clip-path="url(#p3efa4bf3f9)" style="fill: #70839c; stroke: #ffffff; stroke-width: 0.8; stroke-linejoin: miter"/>
   </g>
   <g id="patch_38">
    <path d="M 181.5885 379.136847 
L 225.9185 379.136847 
L 225.9185 110.007435 
L 181.5885 110.007435 
z
" clip-path="url(#p3efa4bf3f9)" style="fill: #4a7fcf; stroke: #ffffff; stroke-width: 0.8; stroke-linejoin: miter"/>
   </g>
   <g id="patch_39">
    <path d="M 181.5885 110.007435 
L 225.9185 110.007435 
L 241.6485 102.528471 
L 197.3185 102.528471 
z
" clip-path="url(#p3efa4bf3f9)" style="fill: #84a8de; stroke: #ffffff; stroke-width: 0.8; stroke-linejoin: miter"/>
   </g>
   <g id="patch_40">
    <path d="M 225.9185 379.136847 
L 241.6485 371.657882 
L 241.6485 102.528471 
L 225.9185 110.007435 
z
" clip-path="url(#p3efa4bf3f9)" style="fill: #3a63a1; stroke: #ffffff; stroke-width: 0.8; stroke-linejoin: miter"/>
   </g>
   <g id="patch_41">
    <path d="M 267.46 318.446963 
L 311.79 318.446963 
L 311.79 177.553037 
L 267.46 177.553037 
z
" clip-path="url(#p3efa4bf3f9)" style="fill: #4a7fcf; stroke: #ffffff; stroke-width: 0.8; stroke-linejoin: miter"/>
   </g>
   <g id="patch_42">
    <path d="M 267.46 177.553037 
L 311.79 177.553037 
L 327.52 170.074073 
L 283.19 170.074073 
z
" clip-path="url(#p3efa4bf3f9)" style="fill: #84a8de; stroke: #ffffff; stroke-width: 0.8; stroke-linejoin: miter"/>
   </g>
   <g id="patch_43">
    <path d="M 311.79 318.446963 
L 327.52 310.967998 
L 327.52 170.074073 
L 311.79 177.553037 
z
" clip-path="url(#p3efa4bf3f9)" style="fill: #3a63a1; stroke: #ffffff; stroke-width: 0.8; stroke-linejoin: miter"/>
   </g>
   <g id="patch_44">
    <path d="M 707.185 318.446963 
L 751.515 318.446963 
L 751.515 177.553037 
L 707.185 177.553037 
z
" clip-path="url(#p3efa4bf3f9)" style="fill: #e07050; stroke: #ffffff; stroke-width: 0.8; stroke-linejoin: miter"/>
   </g>
   <g id="patch_45">
    <path d="M 707.185 177.553037 
L 751.515 177.553037 
L 767.245 170.074073 
L 722.915 170.074073 
z
" clip-path="url(#p3efa4bf3f9)" style="fill: #ea9e88; stroke: #ffffff; stroke-width: 0.8; stroke-linejoin: miter"/>
   </g>
   <g id="patch_46">
    <path d="M 751.515 318.446963 
L 767.245 310.967998 
L 767.245 170.074073 
L 751.515 177.553037 
z
" clip-path="url(#p3efa4bf3f9)" style="fill: #af573e; stroke: #ffffff; stroke-width: 0.8; stroke-linejoin: miter"/>
   </g>
   <g id="patch_47">
    <path d="M 807.2135 379.136847 
L 851.5435 379.136847 
L 851.5435 110.007435 
L 807.2135 110.007435 
z
" clip-path="url(#p3efa4bf3f9)" style="fill: #e07050; stroke: #ffffff; stroke-width: 0.8; stroke-linejoin: miter"/>
   </g>
   <g id="patch_48">
    <path d="M 807.2135 110.007435 
L 851.5435 110.007435 
L 867.2735 102.528471 
L 822.9435 102.528471 
z
" clip-path="url(#p3efa4bf3f9)" style="fill: #ea9e88; stroke: #ffffff; stroke-width: 0.8; stroke-linejoin: miter"/>
   </g>
   <g id="patch_49">
    <path d="M 851.5435 379.136847 
L 867.2735 371.657882 
L 867.2735 102.528471 
L 851.5435 110.007435 
z
" clip-path="url(#p3efa4bf3f9)" style="fill: #af573e; stroke: #ffffff; stroke-width: 0.8; stroke-linejoin: miter"/>
   </g>
   <g id="patch_50">
    <path d="M 903.7385 379.136847 
L 948.0685 379.136847 
L 948.0685 110.007435 
L 903.7385 110.007435 
z
" clip-path="url(#p3efa4bf3f9)" style="fill: #8fa8c8; stroke: #ffffff; stroke-width: 0.8; stroke-linejoin: miter"/>
   </g>
   <g id="patch_51">
    <path d="M 903.7385 110.007435 
L 948.0685 110.007435 
L 963.7985 102.528471 
L 919.4685 102.528471 
z
" clip-path="url(#p3efa4bf3f9)" style="fill: #b3c4da; stroke: #ffffff; stroke-width: 0.8; stroke-linejoin: miter"/>
   </g>
   <g id="patch_52">
    <path d="M 948.0685 379.136847 
L 963.7985 371.657882 
L 963.7985 102.528471 
L 948.0685 110.007435 
z
" clip-path="url(#p3efa4bf3f9)" style="fill: #70839c; stroke: #ffffff; stroke-width: 0.8; stroke-linejoin: miter"/>
   </g>
   <g id="patch_53">
    <path d="M 524.86 435.682353 
L 569.19 435.682353 
L 569.19 393.188235 
L 524.86 393.188235 
z
" clip-path="url(#p3efa4bf3f9)" style="fill: #9b59b6; stroke: #ffffff; stroke-width: 0.8; stroke-linejoin: miter"/>
   </g>
   <g id="patch_54">
    <path d="M 524.86 393.188235 
L 569.19 393.188235 
L 580.63 387.748988 
L 536.3 387.748988 
z
" clip-path="url(#p3efa4bf3f9)" style="fill: #bb8ecd; stroke: #ffffff; stroke-width: 0.8; stroke-linejoin: miter"/>
   </g>
   <g id="patch_55">
    <path d="M 569.19 435.682353 
L 580.63 430.243106 
L 580.63 387.748988 
L 569.19 393.188235 
z
" clip-path="url(#p3efa4bf3f9)" style="fill: #79458e; stroke: #ffffff; stroke-width: 0.8; stroke-linejoin: miter"/>
   </g>
   <g id="patch_56">
    <path d="M 67.26 382.564706 
L 111.59 382.564706 
L 111.59 113.435294 
L 67.26 113.435294 
z
" clip-path="url(#p3efa4bf3f9)" style="fill: #8fa8c8; stroke: #ffffff; stroke-width: 0.8; stroke-linejoin: miter"/>
   </g>
   <g id="patch_57">
    <path d="M 67.26 113.435294 
L 111.59 113.435294 
L 127.32 105.956329 
L 82.99 105.956329 
z
" clip-path="url(#p3efa4bf3f9)" style="fill: #b3c4da; stroke: #ffffff; stroke-width: 0.8; stroke-linejoin: miter"/>
   </g>
   <g id="patch_58">
    <path d="M 111.59 382.564706 
L 127.32 375.085741 
L 127.32 105.956329 
L 111.59 113.435294 
z
" clip-path="url(#p3efa4bf3f9)" style="fill: #70839c; stroke: #ffffff; stroke-width: 0.8; stroke-linejoin: miter"/>
   </g>
   <g id="patch_59">
    <path d="M 174.51 382.564706 
L 218.84 382.564706 
L 218.84 113.435294 
L 174.51 113.435294 
z
" clip-path="url(#p3efa4bf3f9)" style="fill: #4a7fcf; stroke: #ffffff; stroke-width: 0.8; stroke-linejoin: miter"/>
   </g>
   <g id="patch_60">
    <path d="M 174.51 113.435294 
L 218.84 113.435294 
L 234.57 105.956329 
L 190.24 105.956329 
z
" clip-path="url(#p3efa4bf3f9)" style="fill: #84a8de; stroke: #ffffff; stroke-width: 0.8; stroke-linejoin: miter"/>
   </g>
   <g id="patch_61">
    <path d="M 218.84 382.564706 
L 234.57 375.085741 
L 234.57 105.956329 
L 218.84 113.435294 
z
" clip-path="url(#p3efa4bf3f9)" style="fill: #3a63a1; stroke: #ffffff; stroke-width: 0.8; stroke-linejoin: miter"/>
   </g>
   <g id="patch_62">
    <path d="M 800.135 382.564706 
L 844.465 382.564706 
L 844.465 113.435294 
L 800.135 113.435294 
z
" clip-path="url(#p3efa4bf3f9)" style="fill: #e07050; stroke: #ffffff; stroke-width: 0.8; stroke-linejoin: miter"/>
   </g>
   <g id="patch_63">
    <path d="M 800.135 113.435294 
L 844.465 113.435294 
L 860.195 105.956329 
L 815.865 105.956329 
z
" clip-path="url(#p3efa4bf3f9)" style="fill: #ea9e88; stroke: #ffffff; stroke-width: 0.8; stroke-linejoin: miter"/>
   </g>
   <g id="patch_64">
    <path d="M 844.465 382.564706 
L 860.195 375.085741 
L 860.195 105.956329 
L 844.465 113.435294 
z
" clip-path="url(#p3efa4bf3f9)" style="fill: #af573e; stroke: #ffffff; stroke-width: 0.8; stroke-linejoin: miter"/>
   </g>
   <g id="patch_65">
    <path d="M 896.66 382.564706 
L 940.99 382.564706 
L 940.99 113.435294 
L 896.66 113.435294 
z
" clip-path="url(#p3efa4bf3f9)" style="fill: #8fa8c8; stroke: #ffffff; stroke-width: 0.8; stroke-linejoin: miter"/>
   </g>
   <g id="patch_66">
    <path d="M 896.66 113.435294 
L 940.99 113.435294 
L 956.72 105.956329 
L 912.39 105.956329 
z
" clip-path="url(#p3efa4bf3f9)" style="fill: #b3c4da; stroke: #ffffff; stroke-width: 0.8; stroke-linejoin: miter"/>
   </g>
   <g id="patch_67">
    <path d="M 940.99 382.564706 
L 956.72 375.085741 
L 956.72 105.956329 
L 940.99 113.435294 
z
" clip-path="url(#p3efa4bf3f9)" style="fill: #70839c; stroke: #ffffff; stroke-width: 0.8; stroke-linejoin: miter"/>
   </g>
   <g id="patch_68">
    <path d="M 119.311511 248 
Q 143.04965 248 165.110737 248 
" style="fill: none; stroke: #666666; stroke-width: 1.5; stroke-linecap: round"/>
    <path d="M 161.110737 246 
L 165.110737 248 
L 161.110737 250 
z
" style="fill: #666666; stroke: #666666; stroke-width: 1.5; stroke-linecap: round"/>
   </g>
   <g id="patch_69">
    <path d="M 226.561511 248 
Q 243.152343 248 258.066123 248 
" style="fill: none; stroke: #666666; stroke-width: 1.5; stroke-linecap: round"/>
    <path d="M 254.066123 246 
L 258.066123 248 
L 254.066123 250 
z
" style="fill: #666666; stroke: #666666; stroke-width: 1.5; stroke-linecap: round"/>
   </g>
   <g id="patch_70">
    <path d="M 319.507758 248 
Q 334.310149 248 347.435488 248 
" style="fill: none; stroke: #666666; stroke-width: 1.5; stroke-linecap: round"/>
    <path d="M 343.435488 246 
L 347.435488 248 
L 343.435488 250 
z
" style="fill: #666666; stroke: #666666; stroke-width: 1.5; stroke-linecap: round"/>
   </g>
   <g id="patch_71">
    <path d="M 408.399575 246.689224 
Q 420.113233 236.551735 430.558793 227.51171 
" style="fill: none; stroke: #3bb08f; stroke-width: 1.5; stroke-linecap: round"/>
    <path d="M 426.225401 228.617021 
L 430.558793 227.51171 
L 428.843007 231.64161 
z
" style="fill: #3bb08f; stroke: #3bb08f; stroke-width: 1.5; stroke-linecap: round"/>
   </g>
   <g id="patch_72">
    <path d="M 408.399575 249.310776 
Q 420.113233 259.448265 430.558793 268.48829 
" style="fill: none; stroke: #3bb08f; stroke-width: 1.5; stroke-linecap: round"/>
    <path d="M 428.843007 264.35839 
L 430.558793 268.48829 
L 426.225401 267.382979 
z
" style="fill: #3bb08f; stroke: #3bb08f; stroke-width: 1.5; stroke-linecap: round"/>
   </g>
   <g id="patch_73">
    <path d="M 490.858573 226.068696 
Q 504.124123 233.381772 515.92101 239.885198 
" style="fill: none; stroke: #f0a500; stroke-width: 1.5; stroke-linecap: round"/>
    <path d="M 513.383609 236.202591 
L 515.92101 239.885198 
L 511.452484 239.705555 
z
" style="fill: #f0a500; stroke: #f0a500; stroke-width: 1.5; stroke-linecap: round"/>
   </g>
   <g id="patch_74">
    <path d="M 490.858573 269.931304 
Q 504.124123 262.618228 515.92101 256.114802 
" style="fill: none; stroke: #f0a500; stroke-width: 1.5; stroke-linecap: round"/>
    <path d="M 511.452484 256.294445 
L 515.92101 256.114802 
L 513.383609 259.797409 
z
" style="fill: #f0a500; stroke: #f0a500; stroke-width: 1.5; stroke-linecap: round"/>
   </g>
   <g id="patch_75">
    <path d="M 576.907758 248 
Q 591.710149 248 604.835488 248 
" style="fill: none; stroke: #e07050; stroke-width: 1.5; stroke-linecap: round"/>
    <path d="M 600.835488 246 
L 604.835488 248 
L 600.835488 250 
z
" style="fill: #e07050; stroke: #e07050; stroke-width: 1.5; stroke-linecap: round"/>
   </g>
   <g id="patch_76">
    <path d="M 666.286511 248 
Q 682.877343 248 697.791123 248 
" style="fill: none; stroke: #666666; stroke-width: 1.5; stroke-linecap: round"/>
    <path d="M 693.791123 246 
L 697.791123 248 
L 693.791123 250 
z
" style="fill: #666666; stroke: #666666; stroke-width: 1.5; stroke-linecap: round"/>
   </g>
   <g id="patch_77">
    <path d="M 759.236511 248 
Q 775.827343 248 790.741123 248 
" style="fill: none; stroke: #666666; stroke-width: 1.5; stroke-linecap: round"/>
    <path d="M 786.741123 246 
L 790.741123 248 
L 786.741123 250 
z
" style="fill: #666666; stroke: #666666; stroke-width: 1.5; stroke-linecap: round"/>
   </g>
   <g id="patch_78">
    <path d="M 852.189915 248 
Q 870.564513 248 887.26206 248 
" style="fill: none; stroke: #666666; stroke-width: 1.5; stroke-linecap: round"/>
    <path d="M 883.26206 246 
L 887.26206 248 
L 883.26206 250 
z
" style="fill: #666666; stroke: #666666; stroke-width: 1.5; stroke-linecap: round"/>
   </g>
   <g id="patch_79">
    <path d="M 547.025 391.190372 
Q 547.025 332.234856 547.025 274.732785 
" style="fill: none; stroke-dasharray: 6.5,5.2; stroke-dashoffset: 0; stroke: #9b59b6; stroke-width: 1.3; stroke-linecap: round"/>
    <path d="M 545.025 278.732785 
L 547.025 274.732785 
L 549.025 278.732785 
z
" style="fill: #9b59b6; stroke-dasharray: 6.5,5.2; stroke-dashoffset: 0; stroke: #9b59b6; stroke-width: 1.3; stroke-linecap: round"/>
   </g>
   <g id="text_1">
    <!-- L1000 drug signatures -->
    <g style="fill: #444444" transform="translate(52.75332 401.656535) scale(0.065 -0.065)">
     <defs>
      <path id="DejaVuSans-2f" d="M 628 4666 
L 1259 4666 
L 1259 531 
L 3531 531 
L 3531 0 
L 628 0 
L 628 4666 
z
" transform="scale(0.015625)"/>
      <path id="DejaVuSans-14" d="M 794 531 
L 1825 531 
L 1825 4091 
L 703 3866 
L 703 4441 
L 1819 4666 
L 2450 4666 
L 2450 531 
L 3481 531 
L 3481 0 
L 794 0 
L 794 531 
z
" transform="scale(0.015625)"/>
      <path id="DejaVuSans-13" d="M 2034 4250 
Q 1547 4250 1301 3770 
Q 1056 3291 1056 2328 
Q 1056 1369 1301 889 
Q 1547 409 2034 409 
Q 2525 409 2770 889 
Q 3016 1369 3016 2328 
Q 3016 3291 2770 3770 
Q 2525 4250 2034 4250 
z
M 2034 4750 
Q 2819 4750 3233 4129 
Q 3647 3509 3647 2328 
Q 3647 1150 3233 529 
Q 2819 -91 2034 -91 
Q 1250 -91 836 529 
Q 422 1150 422 2328 
Q 422 3509 836 4129 
Q 1250 4750 2034 4750 
z
" transform="scale(0.015625)"/>
      <path id="DejaVuSans-3" transform="scale(0.015625)"/>
      <path id="DejaVuSans-47" d="M 2906 2969 
L 2906 4863 
L 3481 4863 
L 3481 0 
L 2906 0 
L 2906 525 
Q 2725 213 2448 61 
Q 2172 -91 1784 -91 
Q 1150 -91 751 415 
Q 353 922 353 1747 
Q 353 2572 751 3078 
Q 1150 3584 1784 3584 
Q 2172 3584 2448 3432 
Q 2725 3281 2906 2969 
z
M 947 1747 
Q 947 1113 1208 752 
Q 1469 391 1925 391 
Q 2381 391 2643 752 
Q 2906 1113 2906 1747 
Q 2906 2381 2643 2742 
Q 2381 3103 1925 3103 
Q 1469 3103 1208 2742 
Q 947 2381 947 1747 
z
" transform="scale(0.015625)"/>
      <path id="DejaVuSans-55" d="M 2631 2963 
Q 2534 3019 2420 3045 
Q 2306 3072 2169 3072 
Q 1681 3072 1420 2755 
Q 1159 2438 1159 1844 
L 1159 0 
L 581 0 
L 581 3500 
L 1159 3500 
L 1159 2956 
Q 1341 3275 1631 3429 
Q 1922 3584 2338 3584 
Q 2397 3584 2469 3576 
Q 2541 3569 2628 3553 
L 2631 2963 
z
" transform="scale(0.015625)"/>
      <path id="DejaVuSans-58" d="M 544 1381 
L 544 3500 
L 1119 3500 
L 1119 1403 
Q 1119 906 1312 657 
Q 1506 409 1894 409 
Q 2359 409 2629 706 
Q 2900 1003 2900 1516 
L 2900 3500 
L 3475 3500 
L 3475 0 
L 2900 0 
L 2900 538 
Q 2691 219 2414 64 
Q 2138 -91 1772 -91 
Q 1169 -91 856 284 
Q 544 659 544 1381 
z
M 1991 3584 
L 1991 3584 
z
" transform="scale(0.015625)"/>
      <path id="DejaVuSans-4a" d="M 2906 1791 
Q 2906 2416 2648 2759 
Q 2391 3103 1925 3103 
Q 1463 3103 1205 2759 
Q 947 2416 947 1791 
Q 947 1169 1205 825 
Q 1463 481 1925 481 
Q 2391 481 2648 825 
Q 2906 1169 2906 1791 
z
M 3481 434 
Q 3481 -459 3084 -895 
Q 2688 -1331 1869 -1331 
Q 1566 -1331 1297 -1286 
Q 1028 -1241 775 -1147 
L 775 -588 
Q 1028 -725 1275 -790 
Q 1522 -856 1778 -856 
Q 2344 -856 2625 -561 
Q 2906 -266 2906 331 
L 2906 616 
Q 2728 306 2450 153 
Q 2172 0 1784 0 
Q 1141 0 747 490 
Q 353 981 353 1791 
Q 353 2603 747 3093 
Q 1141 3584 1784 3584 
Q 2172 3584 2450 3431 
Q 2728 3278 2906 2969 
L 2906 3500 
L 3481 3500 
L 3481 434 
z
" transform="scale(0.015625)"/>
      <path id="DejaVuSans-56" d="M 2834 3397 
L 2834 2853 
Q 2591 2978 2328 3040 
Q 2066 3103 1784 3103 
Q 1356 3103 1142 2972 
Q 928 2841 928 2578 
Q 928 2378 1081 2264 
Q 1234 2150 1697 2047 
L 1894 2003 
Q 2506 1872 2764 1633 
Q 3022 1394 3022 966 
Q 3022 478 2636 193 
Q 2250 -91 1575 -91 
Q 1294 -91 989 -36 
Q 684 19 347 128 
L 347 722 
Q 666 556 975 473 
Q 1284 391 1588 391 
Q 1994 391 2212 530 
Q 2431 669 2431 922 
Q 2431 1156 2273 1281 
Q 2116 1406 1581 1522 
L 1381 1569 
Q 847 1681 609 1914 
Q 372 2147 372 2553 
Q 372 3047 722 3315 
Q 1072 3584 1716 3584 
Q 2034 3584 2315 3537 
Q 2597 3491 2834 3397 
z
" transform="scale(0.015625)"/>
      <path id="DejaVuSans-4c" d="M 603 3500 
L 1178 3500 
L 1178 0 
L 603 0 
L 603 3500 
z
M 603 4863 
L 1178 4863 
L 1178 4134 
L 603 4134 
L 603 4863 
z
" transform="scale(0.015625)"/>
      <path id="DejaVuSans-51" d="M 3513 2113 
L 3513 0 
L 2938 0 
L 2938 2094 
Q 2938 2591 2744 2837 
Q 2550 3084 2163 3084 
Q 1697 3084 1428 2787 
Q 1159 2491 1159 1978 
L 1159 0 
L 581 0 
L 581 3500 
L 1159 3500 
L 1159 2956 
Q 1366 3272 1645 3428 
Q 1925 3584 2291 3584 
Q 2894 3584 3203 3211 
Q 3513 2838 3513 2113 
z
" transform="scale(0.015625)"/>
      <path id="DejaVuSans-44" d="M 2194 1759 
Q 1497 1759 1228 1600 
Q 959 1441 959 1056 
Q 959 750 1161 570 
Q 1363 391 1709 391 
Q 2188 391 2477 730 
Q 2766 1069 2766 1631 
L 2766 1759 
L 2194 1759 
z
M 3341 1997 
L 3341 0 
L 2766 0 
L 2766 531 
Q 2569 213 2275 61 
Q 1981 -91 1556 -91 
Q 1019 -91 701 211 
Q 384 513 384 1019 
Q 384 1609 779 1909 
Q 1175 2209 1959 2209 
L 2766 2209 
L 2766 2266 
Q 2766 2663 2505 2880 
Q 2244 3097 1772 3097 
Q 1472 3097 1187 3025 
Q 903 2953 641 2809 
L 641 3341 
Q 956 3463 1253 3523 
Q 1550 3584 1831 3584 
Q 2591 3584 2966 3190 
Q 3341 2797 3341 1997 
z
" transform="scale(0.015625)"/>
      <path id="DejaVuSans-57" d="M 1172 4494 
L 1172 3500 
L 2356 3500 
L 2356 3053 
L 1172 3053 
L 1172 1153 
Q 1172 725 1289 603 
Q 1406 481 1766 481 
L 2356 481 
L 2356 0 
L 1766 0 
Q 1100 0 847 248 
Q 594 497 594 1153 
L 594 3053 
L 172 3053 
L 172 3500 
L 594 3500 
L 594 4494 
L 1172 4494 
z
" transform="scale(0.015625)"/>
      <path id="DejaVuSans-48" d="M 3597 1894 
L 3597 1613 
L 953 1613 
Q 991 1019 1311 708 
Q 1631 397 2203 397 
Q 2534 397 2845 478 
Q 3156 559 3463 722 
L 3463 178 
Q 3153 47 2828 -22 
Q 2503 -91 2169 -91 
Q 1331 -91 842 396 
Q 353 884 353 1716 
Q 353 2575 817 3079 
Q 1281 3584 2069 3584 
Q 2775 3584 3186 3129 
Q 3597 2675 3597 1894 
z
M 3022 2063 
Q 3016 2534 2758 2815 
Q 2500 3097 2075 3097 
Q 1594 3097 1305 2825 
Q 1016 2553 972 2059 
L 3022 2063 
z
" transform="scale(0.015625)"/>
     </defs>
     <use xlink:href="#DejaVuSans-2f"/>
     <use xlink:href="#DejaVuSans-14" transform="translate(55.71875 0)"/>
     <use xlink:href="#DejaVuSans-13" transform="translate(119.34375 0)"/>
     <use xlink:href="#DejaVuSans-13" transform="translate(182.96875 0)"/>
     <use xlink:href="#DejaVuSans-13" transform="translate(246.59375 0)"/>
     <use xlink:href="#DejaVuSans-3" transform="translate(310.21875 0)"/>
     <use xlink:href="#DejaVuSans-47" transform="translate(342 0)"/>
     <use xlink:href="#DejaVuSans-55" transform="translate(405.484375 0)"/>
     <use xlink:href="#DejaVuSans-58" transform="translate(446.59375 0)"/>
     <use xlink:href="#DejaVuSans-4a" transform="translate(509.96875 0)"/>
     <use xlink:href="#DejaVuSans-3" transform="translate(573.453125 0)"/>
     <use xlink:href="#DejaVuSans-56" transform="translate(605.234375 0)"/>
     <use xlink:href="#DejaVuSans-4c" transform="translate(657.328125 0)"/>
     <use xlink:href="#DejaVuSans-4a" transform="translate(685.109375 0)"/>
     <use xlink:href="#DejaVuSans-51" transform="translate(748.59375 0)"/>
     <use xlink:href="#DejaVuSans-44" transform="translate(811.96875 0)"/>
     <use xlink:href="#DejaVuSans-57" transform="translate(873.25 0)"/>
     <use xlink:href="#DejaVuSans-58" transform="translate(912.453125 0)"/>
     <use xlink:href="#DejaVuSans-55" transform="translate(975.828125 0)"/>
     <use xlink:href="#DejaVuSans-48" transform="translate(1014.734375 0)"/>
     <use xlink:href="#DejaVuSans-56" transform="translate(1076.265625 0)"/>
    </g>
    <!-- (978 landmark genes) -->
    <g style="fill: #444444" transform="translate(53.411445 410.756535) scale(0.065 -0.065)">
     <defs>
      <path id="DejaVuSans-b" d="M 1984 4856 
Q 1566 4138 1362 3434 
Q 1159 2731 1159 2009 
Q 1159 1288 1364 580 
Q 1569 -128 1984 -844 
L 1484 -844 
Q 1016 -109 783 600 
Q 550 1309 550 2009 
Q 550 2706 781 3412 
Q 1013 4119 1484 4856 
L 1984 4856 
z
" transform="scale(0.015625)"/>
      <path id="DejaVuSans-1c" d="M 703 97 
L 703 672 
Q 941 559 1184 500 
Q 1428 441 1663 441 
Q 2288 441 2617 861 
Q 2947 1281 2994 2138 
Q 2813 1869 2534 1725 
Q 2256 1581 1919 1581 
Q 1219 1581 811 2004 
Q 403 2428 403 3163 
Q 403 3881 828 4315 
Q 1253 4750 1959 4750 
Q 2769 4750 3195 4129 
Q 3622 3509 3622 2328 
Q 3622 1225 3098 567 
Q 2575 -91 1691 -91 
Q 1453 -91 1209 -44 
Q 966 3 703 97 
z
M 1959 2075 
Q 2384 2075 2632 2365 
Q 2881 2656 2881 3163 
Q 2881 3666 2632 3958 
Q 2384 4250 1959 4250 
Q 1534 4250 1286 3958 
Q 1038 3666 1038 3163 
Q 1038 2656 1286 2365 
Q 1534 2075 1959 2075 
z
" transform="scale(0.015625)"/>
      <path id="DejaVuSans-1a" d="M 525 4666 
L 3525 4666 
L 3525 4397 
L 1831 0 
L 1172 0 
L 2766 4134 
L 525 4134 
L 525 4666 
z
" transform="scale(0.015625)"/>
      <path id="DejaVuSans-1b" d="M 2034 2216 
Q 1584 2216 1326 1975 
Q 1069 1734 1069 1313 
Q 1069 891 1326 650 
Q 1584 409 2034 409 
Q 2484 409 2743 651 
Q 3003 894 3003 1313 
Q 3003 1734 2745 1975 
Q 2488 2216 2034 2216 
z
M 1403 2484 
Q 997 2584 770 2862 
Q 544 3141 544 3541 
Q 544 4100 942 4425 
Q 1341 4750 2034 4750 
Q 2731 4750 3128 4425 
Q 3525 4100 3525 3541 
Q 3525 3141 3298 2862 
Q 3072 2584 2669 2484 
Q 3125 2378 3379 2068 
Q 3634 1759 3634 1313 
Q 3634 634 3220 271 
Q 2806 -91 2034 -91 
Q 1263 -91 848 271 
Q 434 634 434 1313 
Q 434 1759 690 2068 
Q 947 2378 1403 2484 
z
M 1172 3481 
Q 1172 3119 1398 2916 
Q 1625 2713 2034 2713 
Q 2441 2713 2670 2916 
Q 2900 3119 2900 3481 
Q 2900 3844 2670 4047 
Q 2441 4250 2034 4250 
Q 1625 4250 1398 4047 
Q 1172 3844 1172 3481 
z
" transform="scale(0.015625)"/>
      <path id="DejaVuSans-4f" d="M 603 4863 
L 1178 4863 
L 1178 0 
L 603 0 
L 603 4863 
z
" transform="scale(0.015625)"/>
      <path id="DejaVuSans-50" d="M 3328 2828 
Q 3544 3216 3844 3400 
Q 4144 3584 4550 3584 
Q 5097 3584 5394 3201 
Q 5691 2819 5691 2113 
L 5691 0 
L 5113 0 
L 5113 2094 
Q 5113 2597 4934 2840 
Q 4756 3084 4391 3084 
Q 3944 3084 3684 2787 
Q 3425 2491 3425 1978 
L 3425 0 
L 2847 0 
L 2847 2094 
Q 2847 2600 2669 2842 
Q 2491 3084 2119 3084 
Q 1678 3084 1418 2786 
Q 1159 2488 1159 1978 
L 1159 0 
L 581 0 
L 581 3500 
L 1159 3500 
L 1159 2956 
Q 1356 3278 1631 3431 
Q 1906 3584 2284 3584 
Q 2666 3584 2933 3390 
Q 3200 3197 3328 2828 
z
" transform="scale(0.015625)"/>
      <path id="DejaVuSans-4e" d="M 581 4863 
L 1159 4863 
L 1159 1991 
L 2875 3500 
L 3609 3500 
L 1753 1863 
L 3688 0 
L 2938 0 
L 1159 1709 
L 1159 0 
L 581 0 
L 581 4863 
z
" transform="scale(0.015625)"/>
      <path id="DejaVuSans-c" d="M 513 4856 
L 1013 4856 
Q 1481 4119 1714 3412 
Q 1947 2706 1947 2009 
Q 1947 1309 1714 600 
Q 1481 -109 1013 -844 
L 513 -844 
Q 928 -128 1133 580 
Q 1338 1288 1338 2009 
Q 1338 2731 1133 3434 
Q 928 4138 513 4856 
z
" transform="scale(0.015625)"/>
     </defs>
     <use xlink:href="#DejaVuSans-b"/>
     <use xlink:href="#DejaVuSans-1c" transform="translate(39.015625 0)"/>
     <use xlink:href="#DejaVuSans-1a" transform="translate(102.640625 0)"/>
     <use xlink:href="#DejaVuSans-1b" transform="translate(166.265625 0)"/>
     <use xlink:href="#DejaVuSans-3" transform="translate(229.890625 0)"/>
     <use xlink:href="#DejaVuSans-4f" transform="translate(261.671875 0)"/>
     <use xlink:href="#DejaVuSans-44" transform="translate(289.453125 0)"/>
     <use xlink:href="#DejaVuSans-51" transform="translate(350.734375 0)"/>
     <use xlink:href="#DejaVuSans-47" transform="translate(414.109375 0)"/>
     <use xlink:href="#DejaVuSans-50" transform="translate(477.59375 0)"/>
     <use xlink:href="#DejaVuSans-44" transform="translate(575 0)"/>
     <use xlink:href="#DejaVuSans-55" transform="translate(636.28125 0)"/>
     <use xlink:href="#DejaVuSans-4e" transform="translate(677.390625 0)"/>
     <use xlink:href="#DejaVuSans-3" transform="translate(735.296875 0)"/>
     <use xlink:href="#DejaVuSans-4a" transform="translate(767.078125 0)"/>
     <use xlink:href="#DejaVuSans-48" transform="translate(830.5625 0)"/>
     <use xlink:href="#DejaVuSans-51" transform="translate(892.09375 0)"/>
     <use xlink:href="#DejaVuSans-48" transform="translate(955.46875 0)"/>
     <use xlink:href="#DejaVuSans-56" transform="translate(1017 0)"/>
     <use xlink:href="#DejaVuSans-c" transform="translate(1069.09375 0)"/>
    </g>
   </g>
   <g id="text_2">
    <!-- Reconstructed -->
    <g style="fill: #444444" transform="translate(895.390469 402.286222) scale(0.065 -0.065)">
     <defs>
      <path id="DejaVuSans-35" d="M 2841 2188 
Q 3044 2119 3236 1894 
Q 3428 1669 3622 1275 
L 4263 0 
L 3584 0 
L 2988 1197 
Q 2756 1666 2539 1819 
Q 2322 1972 1947 1972 
L 1259 1972 
L 1259 0 
L 628 0 
L 628 4666 
L 2053 4666 
Q 2853 4666 3247 4331 
Q 3641 3997 3641 3322 
Q 3641 2881 3436 2590 
Q 3231 2300 2841 2188 
z
M 1259 4147 
L 1259 2491 
L 2053 2491 
Q 2509 2491 2742 2702 
Q 2975 2913 2975 3322 
Q 2975 3731 2742 3939 
Q 2509 4147 2053 4147 
L 1259 4147 
z
" transform="scale(0.015625)"/>
      <path id="DejaVuSans-46" d="M 3122 3366 
L 3122 2828 
Q 2878 2963 2633 3030 
Q 2388 3097 2138 3097 
Q 1578 3097 1268 2742 
Q 959 2388 959 1747 
Q 959 1106 1268 751 
Q 1578 397 2138 397 
Q 2388 397 2633 464 
Q 2878 531 3122 666 
L 3122 134 
Q 2881 22 2623 -34 
Q 2366 -91 2075 -91 
Q 1284 -91 818 406 
Q 353 903 353 1747 
Q 353 2603 823 3093 
Q 1294 3584 2113 3584 
Q 2378 3584 2631 3529 
Q 2884 3475 3122 3366 
z
" transform="scale(0.015625)"/>
      <path id="DejaVuSans-52" d="M 1959 3097 
Q 1497 3097 1228 2736 
Q 959 2375 959 1747 
Q 959 1119 1226 758 
Q 1494 397 1959 397 
Q 2419 397 2687 759 
Q 2956 1122 2956 1747 
Q 2956 2369 2687 2733 
Q 2419 3097 1959 3097 
z
M 1959 3584 
Q 2709 3584 3137 3096 
Q 3566 2609 3566 1747 
Q 3566 888 3137 398 
Q 2709 -91 1959 -91 
Q 1206 -91 779 398 
Q 353 888 353 1747 
Q 353 2609 779 3096 
Q 1206 3584 1959 3584 
z
" transform="scale(0.015625)"/>
     </defs>
     <use xlink:href="#DejaVuSans-35"/>
     <use xlink:href="#DejaVuSans-48" transform="translate(65 0)"/>
     <use xlink:href="#DejaVuSans-46" transform="translate(126.53125 0)"/>
     <use xlink:href="#DejaVuSans-52" transform="translate(181.515625 0)"/>
     <use xlink:href="#DejaVuSans-51" transform="translate(242.703125 0)"/>
     <use xlink:href="#DejaVuSans-56" transform="translate(306.078125 0)"/>
     <use xlink:href="#DejaVuSans-57" transform="translate(358.171875 0)"/>
     <use xlink:href="#DejaVuSans-55" transform="translate(397.375 0)"/>
     <use xlink:href="#DejaVuSans-58" transform="translate(438.484375 0)"/>
     <use xlink:href="#DejaVuSans-46" transform="translate(501.859375 0)"/>
     <use xlink:href="#DejaVuSans-57" transform="translate(556.84375 0)"/>
     <use xlink:href="#DejaVuSans-48" transform="translate(596.046875 0)"/>
     <use xlink:href="#DejaVuSans-47" transform="translate(657.578125 0)"/>
    </g>
    <!-- signature -->
    <g style="fill: #444444" transform="translate(903.516484 410.756535) scale(0.065 -0.065)">
     <use xlink:href="#DejaVuSans-56"/>
     <use xlink:href="#DejaVuSans-4c" transform="translate(52.09375 0)"/>
     <use xlink:href="#DejaVuSans-4a" transform="translate(79.875 0)"/>
     <use xlink:href="#DejaVuSans-51" transform="translate(143.359375 0)"/>
     <use xlink:href="#DejaVuSans-44" transform="translate(206.734375 0)"/>
     <use xlink:href="#DejaVuSans-57" transform="translate(268.015625 0)"/>
     <use xlink:href="#DejaVuSans-58" transform="translate(307.21875 0)"/>
     <use xlink:href="#DejaVuSans-55" transform="translate(370.59375 0)"/>
     <use xlink:href="#DejaVuSans-48" transform="translate(409.5 0)"/>
    </g>
   </g>
   <g id="text_3">
    <!-- Input -->
    <g style="fill: #1a1a2e" transform="translate(73.729961 44.028235) scale(0.105 -0.105)">
     <defs>
      <path id="DejaVuSans-Bold-2c" d="M 588 4666 
L 1791 4666 
L 1791 0 
L 588 0 
L 588 4666 
z
" transform="scale(0.015625)"/>
      <path id="DejaVuSans-Bold-51" d="M 4056 2131 
L 4056 0 
L 2931 0 
L 2931 347 
L 2931 1631 
Q 2931 2084 2911 2256 
Q 2891 2428 2841 2509 
Q 2775 2619 2662 2680 
Q 2550 2741 2406 2741 
Q 2056 2741 1856 2470 
Q 1656 2200 1656 1722 
L 1656 0 
L 538 0 
L 538 3500 
L 1656 3500 
L 1656 2988 
Q 1909 3294 2193 3439 
Q 2478 3584 2822 3584 
Q 3428 3584 3742 3212 
Q 4056 2841 4056 2131 
z
" transform="scale(0.015625)"/>
      <path id="DejaVuSans-Bold-53" d="M 1656 506 
L 1656 -1331 
L 538 -1331 
L 538 3500 
L 1656 3500 
L 1656 2988 
Q 1888 3294 2169 3439 
Q 2450 3584 2816 3584 
Q 3463 3584 3878 3070 
Q 4294 2556 4294 1747 
Q 4294 938 3878 423 
Q 3463 -91 2816 -91 
Q 2450 -91 2169 54 
Q 1888 200 1656 506 
z
M 2400 2772 
Q 2041 2772 1848 2508 
Q 1656 2244 1656 1747 
Q 1656 1250 1848 986 
Q 2041 722 2400 722 
Q 2759 722 2948 984 
Q 3138 1247 3138 1747 
Q 3138 2247 2948 2509 
Q 2759 2772 2400 2772 
z
" transform="scale(0.015625)"/>
      <path id="DejaVuSans-Bold-58" d="M 500 1363 
L 500 3500 
L 1625 3500 
L 1625 3150 
Q 1625 2866 1622 2436 
Q 1619 2006 1619 1863 
Q 1619 1441 1641 1255 
Q 1663 1069 1716 984 
Q 1784 875 1895 815 
Q 2006 756 2150 756 
Q 2500 756 2700 1025 
Q 2900 1294 2900 1772 
L 2900 3500 
L 4019 3500 
L 4019 0 
L 2900 0 
L 2900 506 
Q 2647 200 2364 54 
Q 2081 -91 1741 -91 
Q 1134 -91 817 281 
Q 500 653 500 1363 
z
" transform="scale(0.015625)"/>
      <path id="DejaVuSans-Bold-57" d="M 1759 4494 
L 1759 3500 
L 2913 3500 
L 2913 2700 
L 1759 2700 
L 1759 1216 
Q 1759 972 1856 886 
Q 1953 800 2241 800 
L 2816 800 
L 2816 0 
L 1856 0 
Q 1194 0 917 276 
Q 641 553 641 1216 
L 641 2700 
L 84 2700 
L 84 3500 
L 641 3500 
L 641 4494 
L 1759 4494 
z
" transform="scale(0.015625)"/>
     </defs>
     <use xlink:href="#DejaVuSans-Bold-2c"/>
     <use xlink:href="#DejaVuSans-Bold-51" transform="translate(37.203125 0)"/>
     <use xlink:href="#DejaVuSans-Bold-53" transform="translate(108.390625 0)"/>
     <use xlink:href="#DejaVuSans-Bold-58" transform="translate(179.96875 0)"/>
     <use xlink:href="#DejaVuSans-Bold-57" transform="translate(251.15625 0)"/>
    </g>
   </g>
   <g id="text_4">
    <!-- Encoder -->
    <g style="fill: #1a1a2e" transform="translate(263.886836 44.028235) scale(0.105 -0.105)">
     <defs>
      <path id="DejaVuSans-Bold-28" d="M 588 4666 
L 3834 4666 
L 3834 3756 
L 1791 3756 
L 1791 2888 
L 3713 2888 
L 3713 1978 
L 1791 1978 
L 1791 909 
L 3903 909 
L 3903 0 
L 588 0 
L 588 4666 
z
" transform="scale(0.015625)"/>
      <path id="DejaVuSans-Bold-46" d="M 3366 3391 
L 3366 2478 
Q 3138 2634 2908 2709 
Q 2678 2784 2431 2784 
Q 1963 2784 1702 2511 
Q 1441 2238 1441 1747 
Q 1441 1256 1702 982 
Q 1963 709 2431 709 
Q 2694 709 2930 787 
Q 3166 866 3366 1019 
L 3366 103 
Q 3103 6 2833 -42 
Q 2563 -91 2291 -91 
Q 1344 -91 809 395 
Q 275 881 275 1747 
Q 275 2613 809 3098 
Q 1344 3584 2291 3584 
Q 2566 3584 2833 3536 
Q 3100 3488 3366 3391 
z
" transform="scale(0.015625)"/>
      <path id="DejaVuSans-Bold-52" d="M 2203 2784 
Q 1831 2784 1636 2517 
Q 1441 2250 1441 1747 
Q 1441 1244 1636 976 
Q 1831 709 2203 709 
Q 2569 709 2762 976 
Q 2956 1244 2956 1747 
Q 2956 2250 2762 2517 
Q 2569 2784 2203 2784 
z
M 2203 3584 
Q 3106 3584 3614 3096 
Q 4122 2609 4122 1747 
Q 4122 884 3614 396 
Q 3106 -91 2203 -91 
Q 1297 -91 786 396 
Q 275 884 275 1747 
Q 275 2609 786 3096 
Q 1297 3584 2203 3584 
z
" transform="scale(0.015625)"/>
      <path id="DejaVuSans-Bold-47" d="M 2919 2988 
L 2919 4863 
L 4044 4863 
L 4044 0 
L 2919 0 
L 2919 506 
Q 2688 197 2409 53 
Q 2131 -91 1766 -91 
Q 1119 -91 703 423 
Q 288 938 288 1747 
Q 288 2556 703 3070 
Q 1119 3584 1766 3584 
Q 2128 3584 2408 3439 
Q 2688 3294 2919 2988 
z
M 2181 722 
Q 2541 722 2730 984 
Q 2919 1247 2919 1747 
Q 2919 2247 2730 2509 
Q 2541 2772 2181 2772 
Q 1825 2772 1636 2509 
Q 1447 2247 1447 1747 
Q 1447 1247 1636 984 
Q 1825 722 2181 722 
z
" transform="scale(0.015625)"/>
      <path id="DejaVuSans-Bold-48" d="M 4031 1759 
L 4031 1441 
L 1416 1441 
Q 1456 1047 1700 850 
Q 1944 653 2381 653 
Q 2734 653 3104 758 
Q 3475 863 3866 1075 
L 3866 213 
Q 3469 63 3072 -14 
Q 2675 -91 2278 -91 
Q 1328 -91 801 392 
Q 275 875 275 1747 
Q 275 2603 792 3093 
Q 1309 3584 2216 3584 
Q 3041 3584 3536 3087 
Q 4031 2591 4031 1759 
z
M 2881 2131 
Q 2881 2450 2695 2645 
Q 2509 2841 2209 2841 
Q 1884 2841 1681 2658 
Q 1478 2475 1428 2131 
L 2881 2131 
z
" transform="scale(0.015625)"/>
      <path id="DejaVuSans-Bold-55" d="M 3138 2547 
Q 2991 2616 2845 2648 
Q 2700 2681 2553 2681 
Q 2122 2681 1889 2404 
Q 1656 2128 1656 1613 
L 1656 0 
L 538 0 
L 538 3500 
L 1656 3500 
L 1656 2925 
Q 1872 3269 2151 3426 
Q 2431 3584 2822 3584 
Q 2878 3584 2943 3579 
Q 3009 3575 3134 3559 
L 3138 2547 
z
" transform="scale(0.015625)"/>
     </defs>
     <use xlink:href="#DejaVuSans-Bold-28"/>
     <use xlink:href="#DejaVuSans-Bold-51" transform="translate(68.3125 0)"/>
     <use xlink:href="#DejaVuSans-Bold-46" transform="translate(139.5 0)"/>
     <use xlink:href="#DejaVuSans-Bold-52" transform="translate(198.78125 0)"/>
     <use xlink:href="#DejaVuSans-Bold-47" transform="translate(267.484375 0)"/>
     <use xlink:href="#DejaVuSans-Bold-48" transform="translate(339.0625 0)"/>
     <use xlink:href="#DejaVuSans-Bold-55" transform="translate(406.890625 0)"/>
    </g>
   </g>
   <g id="text_5">
    <!-- Reparameterization -->
    <g style="fill: #1a1a2e" transform="translate(445.346328 44.028235) scale(0.105 -0.105)">
     <defs>
      <path id="DejaVuSans-Bold-35" d="M 2297 2597 
Q 2675 2597 2839 2737 
Q 3003 2878 3003 3200 
Q 3003 3519 2839 3656 
Q 2675 3794 2297 3794 
L 1791 3794 
L 1791 2597 
L 2297 2597 
z
M 1791 1766 
L 1791 0 
L 588 0 
L 588 4666 
L 2425 4666 
Q 3347 4666 3776 4356 
Q 4206 4047 4206 3378 
Q 4206 2916 3982 2619 
Q 3759 2322 3309 2181 
Q 3556 2125 3751 1926 
Q 3947 1728 4147 1325 
L 4800 0 
L 3519 0 
L 2950 1159 
Q 2778 1509 2601 1637 
Q 2425 1766 2131 1766 
L 1791 1766 
z
" transform="scale(0.015625)"/>
      <path id="DejaVuSans-Bold-44" d="M 2106 1575 
Q 1756 1575 1579 1456 
Q 1403 1338 1403 1106 
Q 1403 894 1545 773 
Q 1688 653 1941 653 
Q 2256 653 2472 879 
Q 2688 1106 2688 1447 
L 2688 1575 
L 2106 1575 
z
M 3816 1997 
L 3816 0 
L 2688 0 
L 2688 519 
Q 2463 200 2181 54 
Q 1900 -91 1497 -91 
Q 953 -91 614 226 
Q 275 544 275 1050 
Q 275 1666 698 1953 
Q 1122 2241 2028 2241 
L 2688 2241 
L 2688 2328 
Q 2688 2594 2478 2717 
Q 2269 2841 1825 2841 
Q 1466 2841 1156 2769 
Q 847 2697 581 2553 
L 581 3406 
Q 941 3494 1303 3539 
Q 1666 3584 2028 3584 
Q 2975 3584 3395 3211 
Q 3816 2838 3816 1997 
z
" transform="scale(0.015625)"/>
      <path id="DejaVuSans-Bold-50" d="M 3781 2919 
Q 3994 3244 4286 3414 
Q 4578 3584 4928 3584 
Q 5531 3584 5847 3212 
Q 6163 2841 6163 2131 
L 6163 0 
L 5038 0 
L 5038 1825 
Q 5041 1866 5042 1909 
Q 5044 1953 5044 2034 
Q 5044 2406 4934 2573 
Q 4825 2741 4581 2741 
Q 4263 2741 4089 2478 
Q 3916 2216 3909 1719 
L 3909 0 
L 2784 0 
L 2784 1825 
Q 2784 2406 2684 2573 
Q 2584 2741 2328 2741 
Q 2006 2741 1831 2477 
Q 1656 2213 1656 1722 
L 1656 0 
L 531 0 
L 531 3500 
L 1656 3500 
L 1656 2988 
Q 1863 3284 2130 3434 
Q 2397 3584 2719 3584 
Q 3081 3584 3359 3409 
Q 3638 3234 3781 2919 
z
" transform="scale(0.015625)"/>
      <path id="DejaVuSans-Bold-4c" d="M 538 3500 
L 1656 3500 
L 1656 0 
L 538 0 
L 538 3500 
z
M 538 4863 
L 1656 4863 
L 1656 3950 
L 538 3950 
L 538 4863 
z
" transform="scale(0.015625)"/>
      <path id="DejaVuSans-Bold-5d" d="M 366 3500 
L 3419 3500 
L 3419 2719 
L 1575 800 
L 3419 800 
L 3419 0 
L 288 0 
L 288 781 
L 2131 2700 
L 366 2700 
L 366 3500 
z
" transform="scale(0.015625)"/>
     </defs>
     <use xlink:href="#DejaVuSans-Bold-35"/>
     <use xlink:href="#DejaVuSans-Bold-48" transform="translate(77 0)"/>
     <use xlink:href="#DejaVuSans-Bold-53" transform="translate(144.828125 0)"/>
     <use xlink:href="#DejaVuSans-Bold-44" transform="translate(216.40625 0)"/>
     <use xlink:href="#DejaVuSans-Bold-55" transform="translate(283.890625 0)"/>
     <use xlink:href="#DejaVuSans-Bold-44" transform="translate(333.203125 0)"/>
     <use xlink:href="#DejaVuSans-Bold-50" transform="translate(400.6875 0)"/>
     <use xlink:href="#DejaVuSans-Bold-48" transform="translate(504.890625 0)"/>
     <use xlink:href="#DejaVuSans-Bold-57" transform="translate(572.71875 0)"/>
     <use xlink:href="#DejaVuSans-Bold-48" transform="translate(620.515625 0)"/>
     <use xlink:href="#DejaVuSans-Bold-55" transform="translate(688.34375 0)"/>
     <use xlink:href="#DejaVuSans-Bold-4c" transform="translate(737.65625 0)"/>
     <use xlink:href="#DejaVuSans-Bold-5d" transform="translate(771.9375 0)"/>
     <use xlink:href="#DejaVuSans-Bold-44" transform="translate(830.140625 0)"/>
     <use xlink:href="#DejaVuSans-Bold-57" transform="translate(897.625 0)"/>
     <use xlink:href="#DejaVuSans-Bold-4c" transform="translate(945.421875 0)"/>
     <use xlink:href="#DejaVuSans-Bold-52" transform="translate(979.703125 0)"/>
     <use xlink:href="#DejaVuSans-Bold-51" transform="translate(1048.40625 0)"/>
    </g>
   </g>
   <g id="text_6">
    <!-- Decoder -->
    <g style="fill: #1a1a2e" transform="translate(704.803789 44.028235) scale(0.105 -0.105)">
     <defs>
      <path id="DejaVuSans-Bold-27" d="M 1791 3756 
L 1791 909 
L 2222 909 
Q 2959 909 3348 1275 
Q 3738 1641 3738 2338 
Q 3738 3031 3350 3393 
Q 2963 3756 2222 3756 
L 1791 3756 
z
M 588 4666 
L 1856 4666 
Q 2919 4666 3439 4514 
Q 3959 4363 4331 4000 
Q 4659 3684 4818 3271 
Q 4978 2859 4978 2338 
Q 4978 1809 4818 1395 
Q 4659 981 4331 666 
Q 3956 303 3431 151 
Q 2906 0 1856 0 
L 588 0 
L 588 4666 
z
" transform="scale(0.015625)"/>
     </defs>
     <use xlink:href="#DejaVuSans-Bold-27"/>
     <use xlink:href="#DejaVuSans-Bold-48" transform="translate(83.015625 0)"/>
     <use xlink:href="#DejaVuSans-Bold-46" transform="translate(150.84375 0)"/>
     <use xlink:href="#DejaVuSans-Bold-52" transform="translate(210.125 0)"/>
     <use xlink:href="#DejaVuSans-Bold-47" transform="translate(278.828125 0)"/>
     <use xlink:href="#DejaVuSans-Bold-48" transform="translate(350.40625 0)"/>
     <use xlink:href="#DejaVuSans-Bold-55" transform="translate(418.234375 0)"/>
    </g>
   </g>
   <g id="text_7">
    <!-- Output -->
    <g style="fill: #1a1a2e" transform="translate(898.110469 44.028235) scale(0.105 -0.105)">
     <defs>
      <path id="DejaVuSans-Bold-32" d="M 2719 3878 
Q 2169 3878 1866 3472 
Q 1563 3066 1563 2328 
Q 1563 1594 1866 1187 
Q 2169 781 2719 781 
Q 3272 781 3575 1187 
Q 3878 1594 3878 2328 
Q 3878 3066 3575 3472 
Q 3272 3878 2719 3878 
z
M 2719 4750 
Q 3844 4750 4481 4106 
Q 5119 3463 5119 2328 
Q 5119 1197 4481 553 
Q 3844 -91 2719 -91 
Q 1597 -91 958 553 
Q 319 1197 319 2328 
Q 319 3463 958 4106 
Q 1597 4750 2719 4750 
z
" transform="scale(0.015625)"/>
     </defs>
     <use xlink:href="#DejaVuSans-Bold-32"/>
     <use xlink:href="#DejaVuSans-Bold-58" transform="translate(85.015625 0)"/>
     <use xlink:href="#DejaVuSans-Bold-57" transform="translate(156.203125 0)"/>
     <use xlink:href="#DejaVuSans-Bold-53" transform="translate(204 0)"/>
     <use xlink:href="#DejaVuSans-Bold-58" transform="translate(275.578125 0)"/>
     <use xlink:href="#DejaVuSans-Bold-57" transform="translate(346.765625 0)"/>
    </g>
   </g>
   <g id="text_8">
    <!-- 978 -->
    <g transform="translate(80.031953 250.337891) scale(0.09 -0.09)">
     <defs>
      <path id="DejaVuSans-Bold-1c" d="M 641 103 
L 641 966 
Q 928 831 1190 764 
Q 1453 697 1709 697 
Q 2247 697 2547 995 
Q 2847 1294 2900 1881 
Q 2688 1725 2447 1647 
Q 2206 1569 1925 1569 
Q 1209 1569 770 1986 
Q 331 2403 331 3084 
Q 331 3838 820 4291 
Q 1309 4744 2131 4744 
Q 3044 4744 3544 4128 
Q 4044 3513 4044 2388 
Q 4044 1231 3459 570 
Q 2875 -91 1856 -91 
Q 1528 -91 1228 -42 
Q 928 6 641 103 
z
M 2125 2350 
Q 2441 2350 2600 2554 
Q 2759 2759 2759 3169 
Q 2759 3575 2600 3781 
Q 2441 3988 2125 3988 
Q 1809 3988 1650 3781 
Q 1491 3575 1491 3169 
Q 1491 2759 1650 2554 
Q 1809 2350 2125 2350 
z
" transform="scale(0.015625)"/>
      <path id="DejaVuSans-Bold-1a" d="M 428 4666 
L 3944 4666 
L 3944 3988 
L 2125 0 
L 953 0 
L 2675 3781 
L 428 3781 
L 428 4666 
z
" transform="scale(0.015625)"/>
      <path id="DejaVuSans-Bold-1b" d="M 2228 2088 
Q 1891 2088 1709 1903 
Q 1528 1719 1528 1375 
Q 1528 1031 1709 848 
Q 1891 666 2228 666 
Q 2563 666 2741 848 
Q 2919 1031 2919 1375 
Q 2919 1722 2741 1905 
Q 2563 2088 2228 2088 
z
M 1350 2484 
Q 925 2613 709 2878 
Q 494 3144 494 3541 
Q 494 4131 934 4440 
Q 1375 4750 2228 4750 
Q 3075 4750 3515 4442 
Q 3956 4134 3956 3541 
Q 3956 3144 3739 2878 
Q 3522 2613 3097 2484 
Q 3572 2353 3814 2058 
Q 4056 1763 4056 1313 
Q 4056 619 3595 264 
Q 3134 -91 2228 -91 
Q 1319 -91 855 264 
Q 391 619 391 1313 
Q 391 1763 633 2058 
Q 875 2353 1350 2484 
z
M 1631 3419 
Q 1631 3141 1786 2991 
Q 1941 2841 2228 2841 
Q 2509 2841 2662 2991 
Q 2816 3141 2816 3419 
Q 2816 3697 2662 3845 
Q 2509 3994 2228 3994 
Q 1941 3994 1786 3844 
Q 1631 3694 1631 3419 
z
" transform="scale(0.015625)"/>
     </defs>
     <use xlink:href="#DejaVuSans-Bold-1c"/>
     <use xlink:href="#DejaVuSans-Bold-1a" transform="translate(69.578125 0)"/>
     <use xlink:href="#DejaVuSans-Bold-1b" transform="translate(139.15625 0)"/>
    </g>
   </g>
   <g id="text_9">
    <!-- 978 -->
    <g transform="translate(187.281953 250.337891) scale(0.09 -0.09)">
     <use xlink:href="#DejaVuSans-Bold-1c"/>
     <use xlink:href="#DejaVuSans-Bold-1a" transform="translate(69.578125 0)"/>
     <use xlink:href="#DejaVuSans-Bold-1b" transform="translate(139.15625 0)"/>
    </g>
   </g>
   <g id="text_10">
    <!-- 512 -->
    <g transform="translate(280.231953 250.337891) scale(0.09 -0.09)">
     <defs>
      <path id="DejaVuSans-Bold-18" d="M 678 4666 
L 3669 4666 
L 3669 3781 
L 1638 3781 
L 1638 3059 
Q 1775 3097 1914 3117 
Q 2053 3138 2203 3138 
Q 3056 3138 3531 2711 
Q 4006 2284 4006 1522 
Q 4006 766 3489 337 
Q 2972 -91 2053 -91 
Q 1656 -91 1267 -14 
Q 878 63 494 219 
L 494 1166 
Q 875 947 1217 837 
Q 1559 728 1863 728 
Q 2300 728 2551 942 
Q 2803 1156 2803 1522 
Q 2803 1891 2551 2103 
Q 2300 2316 1863 2316 
Q 1603 2316 1309 2248 
Q 1016 2181 678 2041 
L 678 4666 
z
" transform="scale(0.015625)"/>
      <path id="DejaVuSans-Bold-14" d="M 750 831 
L 1813 831 
L 1813 3847 
L 722 3622 
L 722 4441 
L 1806 4666 
L 2950 4666 
L 2950 831 
L 4013 831 
L 4013 0 
L 750 0 
L 750 831 
z
" transform="scale(0.015625)"/>
      <path id="DejaVuSans-Bold-15" d="M 1844 884 
L 3897 884 
L 3897 0 
L 506 0 
L 506 884 
L 2209 2388 
Q 2438 2594 2547 2791 
Q 2656 2988 2656 3200 
Q 2656 3528 2436 3728 
Q 2216 3928 1850 3928 
Q 1569 3928 1234 3808 
Q 900 3688 519 3450 
L 519 4475 
Q 925 4609 1322 4679 
Q 1719 4750 2100 4750 
Q 2938 4750 3402 4381 
Q 3866 4013 3866 3353 
Q 3866 2972 3669 2642 
Q 3472 2313 2841 1759 
L 1844 884 
z
" transform="scale(0.015625)"/>
     </defs>
     <use xlink:href="#DejaVuSans-Bold-18"/>
     <use xlink:href="#DejaVuSans-Bold-14" transform="translate(69.578125 0)"/>
     <use xlink:href="#DejaVuSans-Bold-15" transform="translate(139.15625 0)"/>
    </g>
   </g>
   <g id="text_11">
    <!-- 256 -->
    <g transform="translate(369.606953 250.337891) scale(0.09 -0.09)">
     <defs>
      <path id="DejaVuSans-Bold-19" d="M 2316 2303 
Q 2000 2303 1842 2098 
Q 1684 1894 1684 1484 
Q 1684 1075 1842 870 
Q 2000 666 2316 666 
Q 2634 666 2792 870 
Q 2950 1075 2950 1484 
Q 2950 1894 2792 2098 
Q 2634 2303 2316 2303 
z
M 3803 4544 
L 3803 3681 
Q 3506 3822 3243 3889 
Q 2981 3956 2731 3956 
Q 2194 3956 1894 3657 
Q 1594 3359 1544 2772 
Q 1750 2925 1990 3001 
Q 2231 3078 2516 3078 
Q 3231 3078 3670 2659 
Q 4109 2241 4109 1563 
Q 4109 813 3618 361 
Q 3128 -91 2303 -91 
Q 1394 -91 895 523 
Q 397 1138 397 2266 
Q 397 3422 980 4083 
Q 1563 4744 2578 4744 
Q 2900 4744 3203 4694 
Q 3506 4644 3803 4544 
z
" transform="scale(0.015625)"/>
     </defs>
     <use xlink:href="#DejaVuSans-Bold-15"/>
     <use xlink:href="#DejaVuSans-Bold-18" transform="translate(69.578125 0)"/>
     <use xlink:href="#DejaVuSans-Bold-19" transform="translate(139.15625 0)"/>
    </g>
   </g>
   <g id="text_12">
    <!-- 256 -->
    <g transform="translate(627.006953 250.337891) scale(0.09 -0.09)">
     <use xlink:href="#DejaVuSans-Bold-15"/>
     <use xlink:href="#DejaVuSans-Bold-18" transform="translate(69.578125 0)"/>
     <use xlink:href="#DejaVuSans-Bold-19" transform="translate(139.15625 0)"/>
    </g>
   </g>
   <g id="text_13">
    <!-- 512 -->
    <g transform="translate(719.956953 250.337891) scale(0.09 -0.09)">
     <use xlink:href="#DejaVuSans-Bold-18"/>
     <use xlink:href="#DejaVuSans-Bold-14" transform="translate(69.578125 0)"/>
     <use xlink:href="#DejaVuSans-Bold-15" transform="translate(139.15625 0)"/>
    </g>
   </g>
   <g id="text_14">
    <!-- 978 -->
    <g transform="translate(812.906953 250.337891) scale(0.09 -0.09)">
     <use xlink:href="#DejaVuSans-Bold-1c"/>
     <use xlink:href="#DejaVuSans-Bold-1a" transform="translate(69.578125 0)"/>
     <use xlink:href="#DejaVuSans-Bold-1b" transform="translate(139.15625 0)"/>
    </g>
   </g>
   <g id="text_15">
    <!-- 978 -->
    <g transform="translate(909.431953 250.337891) scale(0.09 -0.09)">
     <use xlink:href="#DejaVuSans-Bold-1c"/>
     <use xlink:href="#DejaVuSans-Bold-1a" transform="translate(69.578125 0)"/>
     <use xlink:href="#DejaVuSans-Bold-1b" transform="translate(139.15625 0)"/>
    </g>
   </g>
   <g id="text_16">
    <!-- μ -->
    <g transform="translate(457.178203 227.962159) scale(0.11 -0.11)">
     <defs>
      <path id="DejaVuSans-Bold-350" d="M 544 -1338 
L 544 3500 
L 1672 3500 
L 1672 1466 
Q 1672 1103 1828 926 
Q 1984 750 2303 750 
Q 2625 750 2781 926 
Q 2938 1103 2938 1466 
L 2938 3500 
L 4063 3500 
L 4063 1159 
Q 4063 938 4114 850 
Q 4166 763 4288 763 
Q 4344 763 4395 778 
Q 4447 794 4506 831 
L 4506 50 
Q 4341 -22 4195 -56 
Q 4050 -91 3909 -91 
Q 3631 -91 3454 26 
Q 3278 144 3169 403 
Q 3022 156 2811 32 
Q 2600 -91 2322 -91 
Q 2091 -91 1928 -17 
Q 1766 56 1672 206 
L 1672 -1338 
L 544 -1338 
z
" transform="scale(0.015625)"/>
     </defs>
     <use xlink:href="#DejaVuSans-Bold-350"/>
    </g>
   </g>
   <g id="text_17">
    <!-- logσ² -->
    <g transform="translate(448.635039 273.103603) scale(0.085 -0.085)">
     <defs>
      <path id="DejaVuSans-Bold-4f" d="M 538 4863 
L 1656 4863 
L 1656 0 
L 538 0 
L 538 4863 
z
" transform="scale(0.015625)"/>
      <path id="DejaVuSans-Bold-4a" d="M 2919 594 
Q 2688 288 2409 144 
Q 2131 0 1766 0 
Q 1125 0 706 504 
Q 288 1009 288 1791 
Q 288 2575 706 3076 
Q 1125 3578 1766 3578 
Q 2131 3578 2409 3434 
Q 2688 3291 2919 2981 
L 2919 3500 
L 4044 3500 
L 4044 353 
Q 4044 -491 3511 -936 
Q 2978 -1381 1966 -1381 
Q 1638 -1381 1331 -1331 
Q 1025 -1281 716 -1178 
L 716 -306 
Q 1009 -475 1290 -558 
Q 1572 -641 1856 -641 
Q 2406 -641 2662 -400 
Q 2919 -159 2919 353 
L 2919 594 
z
M 2181 2772 
Q 1834 2772 1640 2515 
Q 1447 2259 1447 1791 
Q 1447 1309 1634 1061 
Q 1822 813 2181 813 
Q 2531 813 2725 1069 
Q 2919 1325 2919 1791 
Q 2919 2259 2725 2515 
Q 2531 2772 2181 2772 
z
" transform="scale(0.015625)"/>
      <path id="DejaVuSans-Bold-357" d="M 2200 2784 
Q 1831 2784 1636 2517 
Q 1441 2250 1441 1747 
Q 1441 1244 1636 976 
Q 1831 709 2200 709 
Q 2569 709 2762 976 
Q 2956 1244 2956 1747 
Q 2956 2250 2762 2517 
Q 2569 2784 2200 2784 
z
M 4650 2700 
L 3916 2700 
Q 4122 2291 4122 1747 
Q 4122 884 3614 396 
Q 3106 -91 2203 -91 
Q 1297 -91 786 396 
Q 275 884 275 1747 
Q 275 2609 788 3097 
Q 1209 3500 2203 3500 
L 4650 3500 
L 4650 2700 
z
" transform="scale(0.015625)"/>
      <path id="DejaVuSans-Bold-74" d="M 1288 2613 
L 2444 2613 
L 2444 2088 
L 341 2088 
L 341 2566 
L 1319 3397 
Q 1509 3563 1590 3688 
Q 1672 3813 1672 3938 
Q 1672 4094 1558 4191 
Q 1444 4288 1259 4288 
Q 1066 4288 844 4217 
Q 622 4147 359 4000 
L 359 4581 
Q 631 4666 886 4708 
Q 1141 4750 1375 4750 
Q 1869 4750 2150 4548 
Q 2431 4347 2431 4000 
Q 2431 3775 2320 3586 
Q 2209 3397 1894 3128 
L 1288 2613 
z
" transform="scale(0.015625)"/>
     </defs>
     <use xlink:href="#DejaVuSans-Bold-4f"/>
     <use xlink:href="#DejaVuSans-Bold-52" transform="translate(34.28125 0)"/>
     <use xlink:href="#DejaVuSans-Bold-4a" transform="translate(102.984375 0)"/>
     <use xlink:href="#DejaVuSans-Bold-357" transform="translate(174.5625 0)"/>
     <use xlink:href="#DejaVuSans-Bold-74" transform="translate(252.4375 0)"/>
    </g>
   </g>
   <g id="text_18">
    <!-- z -->
    <g transform="translate(542.659766 251.896484) scale(0.15 -0.15)">
     <use xlink:href="#DejaVuSans-Bold-5d"/>
    </g>
   </g>
   <g id="text_19">
    <!-- z = μ + σε -->
    <g style="fill: #444444" transform="translate(510.0475 205.777919) scale(0.14 -0.14)">
     <defs>
      <path id="DejaVuSans-5d" d="M 353 3500 
L 3084 3500 
L 3084 2975 
L 922 459 
L 3084 459 
L 3084 0 
L 275 0 
L 275 525 
L 2438 3041 
L 353 3041 
L 353 3500 
z
" transform="scale(0.015625)"/>
      <path id="DejaVuSans-20" d="M 678 2906 
L 4684 2906 
L 4684 2381 
L 678 2381 
L 678 2906 
z
M 678 1631 
L 4684 1631 
L 4684 1100 
L 678 1100 
L 678 1631 
z
" transform="scale(0.015625)"/>
      <path id="DejaVuSans-350" d="M 544 -1331 
L 544 3500 
L 1119 3500 
L 1119 1325 
Q 1119 872 1334 640 
Q 1550 409 1972 409 
Q 2434 409 2667 671 
Q 2900 934 2900 1459 
L 2900 3500 
L 3475 3500 
L 3475 806 
Q 3475 619 3529 530 
Q 3584 441 3700 441 
Q 3728 441 3778 458 
Q 3828 475 3916 513 
L 3916 50 
Q 3788 -22 3673 -56 
Q 3559 -91 3450 -91 
Q 3234 -91 3106 31 
Q 2978 153 2931 403 
Q 2775 156 2548 32 
Q 2322 -91 2016 -91 
Q 1697 -91 1473 31 
Q 1250 153 1119 397 
L 1119 -1331 
L 544 -1331 
z
" transform="scale(0.015625)"/>
      <path id="DejaVuSans-e" d="M 2944 4013 
L 2944 2272 
L 4684 2272 
L 4684 1741 
L 2944 1741 
L 2944 0 
L 2419 0 
L 2419 1741 
L 678 1741 
L 678 2272 
L 2419 2272 
L 2419 4013 
L 2944 4013 
z
" transform="scale(0.015625)"/>
      <path id="DejaVuSans-357" d="M 1959 3044 
Q 1484 3044 1228 2700 
Q 959 2341 959 1747 
Q 959 1119 1226 758 
Q 1494 397 1959 397 
Q 2419 397 2687 759 
Q 2956 1122 2956 1747 
Q 2956 2319 2688 2700 
Q 2441 3044 1959 3044 
z
M 1959 3500 
L 3869 3500 
L 3869 2925 
L 3225 2925 
Q 3566 2438 3566 1747 
Q 3566 888 3138 400 
Q 2709 -91 1959 -91 
Q 1206 -91 781 400 
Q 353 888 353 1747 
Q 353 2613 781 3097 
Q 1134 3500 1959 3500 
z
" transform="scale(0.015625)"/>
      <path id="DejaVuSans-349" d="M 1234 1888 
Q 884 1963 697 2166 
Q 509 2366 509 2656 
Q 509 3097 866 3344 
Q 1219 3588 1831 3588 
Q 2069 3588 2334 3550 
Q 2600 3513 2906 3438 
L 2906 2916 
Q 2603 3006 2353 3047 
Q 2100 3088 1878 3088 
Q 1506 3088 1291 2944 
Q 1072 2800 1072 2600 
Q 1072 2381 1284 2241 
Q 1494 2103 1856 2103 
L 2341 2103 
L 2341 1628 
L 1878 1628 
Q 1450 1628 1225 1469 
Q 981 1294 981 1019 
Q 981 738 1244 563 
Q 1509 388 1981 388 
Q 2272 388 2538 444 
Q 2803 503 3025 619 
L 3025 84 
Q 2744 -3 2481 -47 
Q 2216 -91 1966 -91 
Q 1222 -91 819 194 
Q 416 478 416 1019 
Q 416 1356 631 1584 
Q 847 1813 1234 1888 
z
" transform="scale(0.015625)"/>
     </defs>
     <use xlink:href="#DejaVuSans-5d"/>
     <use xlink:href="#DejaVuSans-3" transform="translate(52.484375 0)"/>
     <use xlink:href="#DejaVuSans-20" transform="translate(84.265625 0)"/>
     <use xlink:href="#DejaVuSans-3" transform="translate(168.0625 0)"/>
     <use xlink:href="#DejaVuSans-350" transform="translate(199.84375 0)"/>
     <use xlink:href="#DejaVuSans-3" transform="translate(263.46875 0)"/>
     <use xlink:href="#DejaVuSans-e" transform="translate(295.25 0)"/>
     <use xlink:href="#DejaVuSans-3" transform="translate(379.046875 0)"/>
     <use xlink:href="#DejaVuSans-357" transform="translate(410.828125 0)"/>
     <use xlink:href="#DejaVuSans-349" transform="translate(474.203125 0)"/>
    </g>
   </g>
   <g id="text_20">
    <!-- IPF sig -->
    <g style="fill: #111111" transform="translate(534.7075 416.83226) scale(0.065 -0.065)">
     <defs>
      <path id="DejaVuSans-Bold-33" d="M 588 4666 
L 2584 4666 
Q 3475 4666 3951 4270 
Q 4428 3875 4428 3144 
Q 4428 2409 3951 2014 
Q 3475 1619 2584 1619 
L 1791 1619 
L 1791 0 
L 588 0 
L 588 4666 
z
M 1791 3794 
L 1791 2491 
L 2456 2491 
Q 2806 2491 2997 2661 
Q 3188 2831 3188 3144 
Q 3188 3456 2997 3625 
Q 2806 3794 2456 3794 
L 1791 3794 
z
" transform="scale(0.015625)"/>
      <path id="DejaVuSans-Bold-29" d="M 588 4666 
L 3834 4666 
L 3834 3756 
L 1791 3756 
L 1791 2888 
L 3713 2888 
L 3713 1978 
L 1791 1978 
L 1791 0 
L 588 0 
L 588 4666 
z
" transform="scale(0.015625)"/>
      <path id="DejaVuSans-Bold-3" transform="scale(0.015625)"/>
      <path id="DejaVuSans-Bold-56" d="M 3272 3391 
L 3272 2541 
Q 2913 2691 2578 2766 
Q 2244 2841 1947 2841 
Q 1628 2841 1473 2761 
Q 1319 2681 1319 2516 
Q 1319 2381 1436 2309 
Q 1553 2238 1856 2203 
L 2053 2175 
Q 2913 2066 3209 1816 
Q 3506 1566 3506 1031 
Q 3506 472 3093 190 
Q 2681 -91 1863 -91 
Q 1516 -91 1145 -36 
Q 775 19 384 128 
L 384 978 
Q 719 816 1070 734 
Q 1422 653 1784 653 
Q 2113 653 2278 743 
Q 2444 834 2444 1013 
Q 2444 1163 2330 1236 
Q 2216 1309 1875 1350 
L 1678 1375 
Q 931 1469 631 1722 
Q 331 1975 331 2491 
Q 331 3047 712 3315 
Q 1094 3584 1881 3584 
Q 2191 3584 2531 3537 
Q 2872 3491 3272 3391 
z
" transform="scale(0.015625)"/>
     </defs>
     <use xlink:href="#DejaVuSans-Bold-2c"/>
     <use xlink:href="#DejaVuSans-Bold-33" transform="translate(37.203125 0)"/>
     <use xlink:href="#DejaVuSans-Bold-29" transform="translate(110.5 0)"/>
     <use xlink:href="#DejaVuSans-Bold-3" transform="translate(178.8125 0)"/>
     <use xlink:href="#DejaVuSans-Bold-56" transform="translate(213.625 0)"/>
     <use xlink:href="#DejaVuSans-Bold-4c" transform="translate(273.140625 0)"/>
     <use xlink:href="#DejaVuSans-Bold-4a" transform="translate(307.421875 0)"/>
    </g>
   </g>
  </g>
 </g>
 <defs>
  <clipPath id="p3efa4bf3f9">
   <rect x="7.2" y="7.2" width="1144" height="481.6"/>
  </clipPath>
 </defs>
</svg>
